<svg width="129" height="128" viewBox="0 0 129 128" fill="none" xmlns="http://www.w3.org/2000/svg">
<path fill-rule="evenodd" clip-rule="evenodd" d="M64.4612 20C40.1607 20 20.4612 39.6995 20.4612 64C20.4612 88.3005 40.1607 108 64.4612 108C88.7617 108 108.461 88.3005 108.461 64C108.461 39.6995 88.7617 20 64.4612 20ZM12.4612 64C12.4612 35.2812 35.7424 12 64.4612 12C93.18 12 116.461 35.2812 116.461 64C116.461 92.7188 93.18 116 64.4612 116C35.7424 116 12.4612 92.7188 12.4612 64ZM64.4612 32C66.6703 32 68.4612 33.7909 68.4612 36V60H92.4612C94.6703 60 96.4612 61.7909 96.4612 64C96.4612 66.2091 94.6703 68 92.4612 68H64.4612C62.252 68 60.4612 66.2091 60.4612 64V36C60.4612 33.7909 62.252 32 64.4612 32Z" fill="white"/>
</svg>
